# xmcd CD database file
#
# Track frame offsets:
#	150
#	14737
#	43800
#	66765
#	79935
#	96242
#	119845
#	144755
#	161322
#	186917
#
# Disc length: 2769 seconds
#
# Revision: 0
# Processed by: cddbd v1.5.1PL0 Copyright (c) Steve Scherf et al.
# Submitted via: CDex 1.51
#
DISCID=8a0acf0a
DTITLE=George Melley - Nuts
DYEAR=1972
DGENRE=Jazz
TTITLE0=Dr Jazz
TTITLE1=T'aint Nobody's Business
TTITLE2=Sugar
TTITLE3=Sam Jones' Blues
TTITLE4=If You're A Viper
TTITLE5=There'll Be Some Changes Made
TTITLE6=I Want A Little Girl
TTITLE7=Nuts
TTITLE8=Nobody Knows When You're Down And Out
TTITLE9=Viper Mad
EXTD=YEAR: 1972
EXTT0=
EXTT1=
EXTT2=
EXTT3=
EXTT4=
EXTT5=
EXTT6=
EXTT7=
EXTT8=
EXTT9=
PLAYORDER=
